<svg width="24" height="24" viewBox="0 0 24 24" fill="none" xmlns="http://www.w3.org/2000/svg">
<path d="M9 22C8.03333 22 7.125 21.8167 6.275 21.45C5.425 21.0833 4.68333 20.5833 4.05 19.95C3.41667 19.3167 2.91667 18.575 2.55 17.725C2.18333 16.875 2 15.9667 2 15C2 13.65 2.35 12.4167 3.05 11.3C3.75 10.1833 4.66667 9.33333 5.8 8.75C6.13333 8.1 6.546 7.529 7.038 7.037C7.53 6.545 8.10067 6.13267 8.75 5.8C9.3 4.66667 10.1417 3.75 11.275 3.05C12.4083 2.35 13.65 2 15 2C15.9667 2 16.875 2.18333 17.725 2.55C18.575 2.91667 19.3167 3.41667 19.95 4.05C20.5833 4.68333 21.0833 5.425 21.45 6.275C21.8167 7.125 22 8.03333 22 9C22 10.4167 21.65 11.6667 20.95 12.75C20.25 13.8333 19.3333 14.6667 18.2 15.25C17.8667 15.9 17.4543 16.471 16.963 16.963C16.4717 17.455 15.9007 17.8673 15.25 18.2C14.6667 19.3333 13.8167 20.25 12.7 20.95C11.5833 21.65 10.35 22 9 22ZM9 20C9.55 20 10.0793 19.9167 10.588 19.75C11.0967 19.5833 11.5673 19.3333 12 19C11.0333 19 10.125 18.8167 9.275 18.45C8.425 18.0833 7.68333 17.5833 7.05 16.95C6.41667 16.3167 5.91667 15.575 5.55 14.725C5.18333 13.875 5 12.9667 5 12C4.66667 12.4333 4.41667 12.9043 4.25 13.413C4.08333 13.9217 4 14.4507 4 15C4 15.7 4.13333 16.35 4.4 16.95C4.66667 17.55 5.025 18.075 5.475 18.525C5.925 18.975 6.45 19.3333 7.05 19.6C7.65 19.8667 8.3 20 9 20ZM12 17C12.55 17 13.0877 16.9167 13.613 16.75C14.1383 16.5833 14.6173 16.3333 15.05 16C14.0667 16 13.15 15.8123 12.3 15.437C11.45 15.0617 10.7083 14.5577 10.075 13.925C9.44167 13.2923 8.93767 12.5507 8.563 11.7C8.18833 10.8493 8.00067 9.93267 8 8.95C7.66667 9.38333 7.41667 9.86267 7.25 10.388C7.08333 10.9133 7 11.4507 7 12C7 12.7 7.12933 13.35 7.388 13.95C7.64667 14.55 8.009 15.075 8.475 15.525C8.925 15.9917 9.45 16.354 10.05 16.612C10.65 16.87 11.3 16.9993 12 17ZM15 14C15.3 14 15.5877 13.975 15.863 13.925C16.1383 13.875 16.4173 13.8 16.7 13.7C17.0667 12.7 17.121 11.7373 16.863 10.812C16.605 9.88667 16.159 9.10767 15.525 8.475C14.891 7.84233 14.112 7.39633 13.188 7.137C12.264 6.87767 11.3013 6.932 10.3 7.3C10.2 7.58333 10.125 7.86267 10.075 8.138C10.025 8.41333 10 8.70067 10 9C10 9.7 10.1293 10.35 10.388 10.95C10.6467 11.55 11.009 12.075 11.475 12.525C11.925 12.9917 12.45 13.3543 13.05 13.613C13.65 13.8717 14.3 14.0007 15 14ZM19 12.05C19.3333 11.6167 19.5833 11.1377 19.75 10.613C19.9167 10.0883 20 9.55067 20 9C20 8.3 19.871 7.65 19.613 7.05C19.355 6.45 18.9923 5.925 18.525 5.475C18.075 5.00833 17.55 4.646 16.95 4.388C16.35 4.13 15.7 4.00067 15 4C14.4167 4 13.8707 4.08333 13.362 4.25C12.8533 4.41667 12.3827 4.66667 11.95 5C12.9333 5 13.85 5.18767 14.7 5.563C15.55 5.93833 16.2917 6.44233 16.925 7.075C17.5583 7.70767 18.0627 8.44933 18.438 9.3C18.8133 10.1507 19.0007 11.0673 19 12.05Z" fill="white"/>
</svg>
