<svg width="16" height="18" viewBox="0 0 16 18" fill="none" xmlns="http://www.w3.org/2000/svg">
<path d="M5.6 12.87L6.308 12.15L4.158 10L6.308 7.85L5.6 7.13L2.73 10L5.6 12.87ZM10.4 12.87L13.27 10L10.4 7.13L9.692 7.85L11.842 10L9.692 12.15L10.4 12.87ZM1.616 18C1.17133 18 0.791 17.8417 0.475 17.525C0.159 17.2083 0.000666667 16.8287 0 16.386V3.615C0 3.171 0.158333 2.791 0.475 2.475C0.791667 2.159 1.17167 2.00067 1.615 2H6.315C6.22433 1.48933 6.34667 1.02833 6.682 0.617C7.01667 0.205667 7.45933 0 8.01 0C8.56067 0 9.00333 0.205667 9.338 0.617C9.67267 1.02833 9.78833 1.48933 9.685 2H14.385C14.829 2 15.209 2.15833 15.525 2.475C15.841 2.79167 15.9993 3.17167 16 3.615V16.385C16 16.829 15.8417 17.209 15.525 17.525C15.2083 17.841 14.8283 17.9993 14.385 18H1.616ZM8 2.442C8.21667 2.442 8.396 2.37133 8.538 2.23C8.68 2.08867 8.75067 1.90933 8.75 1.692C8.74933 1.47467 8.67833 1.29567 8.537 1.155C8.39567 1.01433 8.21667 0.943333 8 0.942C7.78333 0.940667 7.60433 1.01167 7.463 1.155C7.32167 1.29833 7.25067 1.47733 7.25 1.692C7.24933 1.90667 7.32033 2.086 7.463 2.23C7.60567 2.374 7.78467 2.44467 8 2.442Z" fill="black"/>
</svg>
