<svg width="15" height="15" viewBox="0 0 15 15" fill="none" xmlns="http://www.w3.org/2000/svg">
<path d="M15 10.6421L10.6049 14.729L8.48238 12.7515L9.19253 12.0923L10.6049 13.396L14.2898 9.98291L15 10.6421ZM7.06996 4.6875H4.03998V3.75H7.06996V4.6875ZM7.06996 6.5625H4.03998V5.625H7.06996V6.5625ZM4.03998 7.5H7.06996V8.4375H4.03998V7.5ZM3.02998 4.6875H2.01999V3.75H3.02998V4.6875ZM3.02998 6.5625H2.01999V5.625H3.02998V6.5625ZM2.01999 7.5H3.02998V8.4375H2.01999V7.5ZM8.07996 4.6875V0.9375H1.00999V14.0625H8.07996V15H0V0H8.798L13.1299 4.021V9.375L12.1199 10.3125V4.6875H8.07996ZM9.08995 3.75H11.4019L9.08995 1.604V3.75Z" fill="black"/>
</svg>
