<svg width="15" height="15" viewBox="0 0 15 15" fill="none" xmlns="http://www.w3.org/2000/svg">
<g clip-path="url(#clip0_175_554)">
<path d="M1.5625 7.5C1.5625 4.70125 1.5625 3.30125 2.43188 2.43188C3.30125 1.5625 4.70062 1.5625 7.5 1.5625C10.2988 1.5625 11.6987 1.5625 12.5681 2.43188C13.4375 3.30125 13.4375 4.70062 13.4375 7.5C13.4375 10.2988 13.4375 11.6987 12.5681 12.5681C11.6987 13.4375 10.2994 13.4375 7.5 13.4375C4.70125 13.4375 3.30125 13.4375 2.43188 12.5681C1.5625 11.6987 1.5625 10.2994 1.5625 7.5Z" stroke="black" stroke-width="1.5" stroke-linecap="round" stroke-linejoin="round"/>
<path d="M1.5625 9.0625H1.89938C2.19438 9.0625 2.34188 9.0625 2.47063 9.00063C2.59875 8.93938 2.69062 8.82375 2.875 8.59312L3.75 7.5L4.6875 9.0625L5.625 6.875L7.1875 10L9.375 5.625L10.625 7.8125L11.5625 6.875L12.4656 8.23C12.6231 8.46625 12.7019 8.58437 12.8169 8.65562C12.8398 8.66979 12.8635 8.6825 12.8881 8.69375C13.0119 8.75 13.1538 8.75 13.4375 8.75M9.375 1.5625V3.4375M9.375 13.4375V9.0625" stroke="black" stroke-width="1.5" stroke-linecap="round" stroke-linejoin="round"/>
<path d="M9.375 6.25C9.72018 6.25 10 5.97018 10 5.625C10 5.27982 9.72018 5 9.375 5C9.02982 5 8.75 5.27982 8.75 5.625C8.75 5.97018 9.02982 6.25 9.375 6.25Z" stroke="black" stroke-width="1.5" stroke-linecap="round" stroke-linejoin="round"/>
</g>
<defs>
<clipPath id="clip0_175_554">
<rect width="15" height="15" fill="white"/>
</clipPath>
</defs>
</svg>
