<svg width="16" height="15" viewBox="0 0 16 15" fill="none" xmlns="http://www.w3.org/2000/svg">
<g clip-path="url(#clip0_175_563)">
<path d="M2.15234 0.3125H13.4023M2.15234 14.6875H13.4023M3.71484 14.6875V10.9375L5.49984 9.86625C5.90849 9.6211 6.24668 9.27431 6.48149 8.85963C6.7163 8.44496 6.83971 7.97654 6.83971 7.5C6.83971 7.02346 6.7163 6.55504 6.48149 6.14037C6.24668 5.72569 5.90849 5.3789 5.49984 5.13375L3.71484 4.0625V0.3125M11.8398 0.3125V4.0625L10.0548 5.13375C9.64635 5.37902 9.3083 5.72586 9.07361 6.14052C8.83892 6.55517 8.71557 7.02353 8.71557 7.5C8.71557 7.97647 8.83892 8.44483 9.07361 8.85948C9.3083 9.27414 9.64635 9.62098 10.0548 9.86625L11.8398 10.9375V14.6875" stroke="black"/>
</g>
<defs>
<clipPath id="clip0_175_563">
<rect width="15" height="15" fill="white" transform="translate(0.277344)"/>
</clipPath>
</defs>
</svg>
