<svg xmlns="http://www.w3.org/2000/svg" width="35" height="32" viewBox="0 0 35 32" fill="none">
<path d="M17.4001 0.450195C8.1216 0.450195 0.600098 7.43582 0.600098 16.0533C0.600098 24.6707 8.1216 31.6563 17.4001 31.6563C26.6786 31.6563 34.2001 24.6707 34.2001 16.0533C34.2001 7.43582 26.6786 0.450195 17.4001 0.450195ZM24.2339 13.2317C24.2409 13.365 24.2426 13.4983 24.2426 13.6283C24.2426 17.6916 20.9159 22.3741 14.8294 22.3741C13.0309 22.3769 11.2698 21.8972 9.75785 20.9926C10.0151 21.0219 10.2793 21.0332 10.5471 21.0332C12.0976 21.0332 13.5239 20.544 14.6561 19.7184C13.9661 19.7058 13.2975 19.4936 12.7435 19.1113C12.1896 18.7291 11.7778 18.1959 11.5656 17.5859C12.0611 17.6735 12.5716 17.6551 13.0583 17.5323C12.3094 17.3917 11.6359 17.0148 11.1521 16.4656C10.6682 15.9163 10.4038 15.2286 10.4036 14.519V14.4816C10.8498 14.7108 11.3608 14.8505 11.9033 14.8668C11.2012 14.4327 10.7042 13.7659 10.5139 13.0028C10.3236 12.2396 10.4544 11.4378 10.8796 10.7612C11.7108 11.7104 12.7473 12.4869 13.9221 13.0404C15.0969 13.594 16.3837 13.9122 17.6994 13.9745C17.5321 13.3151 17.6041 12.6229 17.9041 12.0054C18.2042 11.388 18.7154 10.8799 19.3585 10.5601C20.0015 10.2404 20.7403 10.1269 21.4599 10.2373C22.1796 10.3478 22.8397 10.6759 23.3379 11.1708C24.0784 11.0347 24.7886 10.7824 25.4379 10.4248C25.191 11.1369 24.6743 11.7416 23.9836 12.1265C24.6396 12.0531 25.2801 11.8893 25.8841 11.6405C25.4405 12.258 24.8816 12.7968 24.2339 13.2317Z" fill="white"/>
</svg>