<svg xmlns="http://www.w3.org/2000/svg" width="34" height="32" viewBox="0 0 34 32" fill="none">
<path d="M22.2502 16.0533C22.2502 17.3465 21.6971 18.5867 20.7125 19.5011C19.7279 20.4155 18.3926 20.9292 17.0002 20.9292C15.6078 20.9292 14.2725 20.4155 13.2879 19.5011C12.3033 18.5867 11.7502 17.3465 11.7502 16.0533C11.7502 15.7753 11.7817 15.5039 11.8359 15.2406H10.0002V21.737C10.0002 22.1888 10.3939 22.5545 10.8804 22.5545H23.1217C23.3549 22.5541 23.5783 22.4678 23.743 22.3145C23.9077 22.1612 24.0002 21.9536 24.0002 21.737V15.2406H22.1644C22.2187 15.5039 22.2502 15.7753 22.2502 16.0533ZM17.0002 19.3039C17.4599 19.3038 17.9152 19.2196 18.3399 19.0561C18.7646 18.8926 19.1504 18.653 19.4754 18.351C19.8004 18.049 20.0582 17.6905 20.234 17.296C20.4099 16.9015 20.5003 16.4786 20.5002 16.0516C20.5001 15.6247 20.4094 15.2019 20.2334 14.8074C20.0573 14.413 19.7994 14.0546 19.4742 13.7528C19.149 13.4509 18.763 13.2115 18.3382 13.0482C17.9135 12.8849 17.4582 12.8009 16.9984 12.801C16.07 12.8012 15.1796 13.144 14.5232 13.7539C13.8668 14.3638 13.4982 15.1909 13.4984 16.0533C13.4987 16.9156 13.8677 17.7425 14.5244 18.3522C15.1812 18.9618 16.0717 19.3041 17.0002 19.3039ZM21.2002 12.6401H23.2984C23.4378 12.6401 23.5716 12.5888 23.6703 12.4974C23.769 12.406 23.8247 12.282 23.8252 12.1525V10.2037C23.8252 10.074 23.7697 9.94955 23.6709 9.85781C23.5721 9.76606 23.4382 9.71452 23.2984 9.71452H21.2002C21.0605 9.71452 20.9265 9.76606 20.8277 9.85781C20.7289 9.94955 20.6734 10.074 20.6734 10.2037V12.1525C20.6752 12.4207 20.9114 12.6401 21.2002 12.6401ZM17.0002 0.450195C12.5446 0.450195 8.27141 2.09409 5.1208 5.02023C1.97019 7.94637 0.200195 11.9151 0.200195 16.0533C0.200195 20.1915 1.97019 24.1602 5.1208 27.0863C8.27141 30.0124 12.5446 31.6563 17.0002 31.6563C19.2064 31.6563 21.391 31.2528 23.4293 30.4686C25.4676 29.6845 27.3196 28.5352 28.8796 27.0863C30.4396 25.6374 31.6771 23.9174 32.5214 22.0243C33.3657 20.1313 33.8002 18.1023 33.8002 16.0533C33.8002 14.0042 33.3657 11.9753 32.5214 10.0822C31.6771 8.18918 30.4396 6.46911 28.8796 5.02023C27.3196 3.57135 25.4676 2.42204 23.4293 1.63791C21.391 0.853781 19.2064 0.450195 17.0002 0.450195ZM25.7502 22.3741C25.7502 23.3672 24.8752 24.1799 23.8059 24.1799H10.1944C9.1252 24.1799 8.2502 23.3672 8.2502 22.3741V9.7324C8.2502 8.73933 9.1252 7.92667 10.1944 7.92667H23.8059C24.8752 7.92667 25.7502 8.73933 25.7502 9.7324V22.3741Z" fill="white"/>
</svg>