<svg xmlns="http://www.w3.org/2000/svg" width="20" height="18" viewBox="0 0 20 18" fill="none">
<path d="M12.0894 2.01904C7.31753 -0.498458 2.97315 1.29529 1.40815 3.74717C0.895027 4.54842 0.532527 6.00654 0.546277 7.16279C0.574402 9.54217 1.89128 12.194 4.73378 14.869C8.23065 18.1597 11.7994 17.8722 12.9338 17.5959C14.3619 17.2472 15.3194 16.9503 15.1725 15.619C15.1538 15.444 15.0038 15.1265 14.7775 14.9878C14.0513 14.5472 12.5338 14.3178 11.82 13.2565C10.7825 11.7115 12.0725 11.6334 13.3088 12.294C14.6319 13.0022 15.3882 13.444 16.7163 13.3222C17.69 13.2334 19.1057 12.6459 19.2975 11.0034C19.47 9.51779 17.3013 4.76904 12.0888 2.01904M14.0369 10.094C13.6713 10.6503 12.7682 10.4597 12.1763 9.93467C11.5838 9.40967 11.5075 8.53467 11.8913 8.19092C12.2819 7.84279 13.0163 7.92217 13.6088 8.44717C14.1994 8.97342 14.3232 9.65654 14.0369 10.094Z" fill="#AC5810"/>
<path d="M12.2987 1.45149C7.52619 -1.06601 3.17119 0.880868 1.60619 3.33274C0.0393145 5.78587 0.720564 10.3277 4.94244 14.3015C8.43869 17.5915 12.0081 17.3046 13.1424 17.0277C14.5706 16.6796 15.5781 15.9996 14.9499 15.1327C14.5168 14.534 12.9656 14.0827 12.0293 12.689C10.9918 11.1434 12.2831 11.0652 13.5187 11.7265C14.8418 12.434 15.5987 12.8765 16.9268 12.7546C17.8999 12.6652 19.3718 11.9121 19.3281 10.3902C19.2824 8.89462 17.5112 4.20274 12.2987 1.45149ZM14.4943 10.0496C14.0493 10.5309 13.1006 10.3996 12.3756 9.75899C11.6524 9.11712 11.4256 8.20774 11.8712 7.72774C12.3162 7.24649 13.2649 7.37774 13.9899 8.01837C14.7149 8.65899 14.9399 9.57024 14.4943 10.0496Z" fill="#F2A259"/>
<path d="M7.44057 12.228C7.62057 11.7687 8.89869 11.2655 10.0737 12.1012C10.4031 12.3355 10.8156 12.9324 10.7737 13.6824C10.6362 16.1324 6.61557 14.3418 7.44057 12.228Z" fill="#EEEEEE"/>
<path d="M3.7081 8.07259C4.11872 7.41634 5.11747 7.34134 5.9906 7.90821C6.76872 8.41259 7.41872 9.65509 6.45935 10.4676C5.9456 10.9032 5.05622 10.6332 4.50809 10.2126C3.84247 9.70509 3.2656 8.77884 3.7081 8.07259Z" fill="#2686C6"/>
<path d="M9.01137 2.3456C9.13762 1.8256 10.0201 1.73623 10.6451 1.96935C11.7251 2.37248 12.2139 3.44123 11.8157 4.03623C11.2326 4.90686 9.96262 4.6081 9.48137 4.10998C8.6645 3.26623 8.90512 2.78185 9.01137 2.3456Z" fill="#FFEE58"/>
<path d="M15.2676 4.89399C16.1326 5.28774 16.2451 5.91087 16.0801 6.36587C15.9763 6.64712 15.7657 7.03274 15.3345 7.06774C14.6045 7.12712 14.5032 6.52399 13.9826 6.35837C13.5451 6.21899 13.367 5.62087 13.5388 5.21899C13.6988 4.84899 14.1645 4.39087 15.2676 4.89399Z" fill="#7CB342"/>
<path d="M10.4645 14.1495C10.2489 14.3452 9.50013 14.5858 8.55013 13.992C8.22825 13.7902 7.92013 13.4983 7.747 13.0608C7.61138 12.717 7.64075 12.3858 7.702 12.2389C7.877 11.8152 8.14388 11.737 8.14388 11.737C7.87513 11.7183 7.36763 12.0745 7.28325 12.542C7.25638 12.6889 7.067 13.607 8.2845 14.4402C9.33263 15.1589 10.8833 15.092 10.7814 13.6452C10.7223 13.8385 10.6133 14.0126 10.4645 14.1495Z" fill="#B0B0B0"/>
<path d="M6.91552 9.26844C6.88615 9.82656 6.2324 10.1203 5.86865 10.1216C4.83865 10.1228 3.91365 9.47594 3.8499 8.32469C3.83865 8.11844 3.94053 7.82031 3.94053 7.82031C3.80428 7.87781 3.6124 8.17156 3.57178 8.33719C3.33115 9.33094 4.3324 10.4891 5.3874 10.7234C5.92178 10.8422 6.59553 10.6591 6.84053 10.1809C7.01553 9.84031 6.98115 9.54844 6.91552 9.26844Z" fill="#01579B"/>
<path d="M10.519 4.11172C9.81899 4.03172 9.43149 3.57422 9.33024 3.46922C9.05149 3.17859 8.88024 2.89609 8.98024 2.47734C9.01149 2.34297 9.08774 2.17109 9.18149 2.07422C9.06774 2.11172 8.88336 2.35672 8.82524 2.48984C8.76586 2.62234 8.55024 3.12109 9.01274 3.73484C9.29836 4.11609 9.79711 4.54609 10.5346 4.64922C11.0577 4.72234 11.4334 4.53484 11.7459 4.23047C11.9584 4.02234 12.0521 3.55359 11.9252 3.31172C11.9459 3.48797 11.6221 4.23797 10.519 4.11172Z" fill="#DF7F14"/>
<path d="M16.2769 6.00695C16.2209 5.82683 16.1307 5.65919 16.0113 5.5132C16.0906 5.66633 16.2488 6.1257 15.9175 6.57195C15.75 6.79695 15.2469 7.07383 14.6531 6.59258C14.4781 6.45008 14.3375 6.30945 14.0219 6.19383C13.2206 5.89883 13.57 5.0832 13.8488 4.83008C13.63 4.94445 13.4313 5.14883 13.3488 5.46133C13.2325 5.89695 13.5188 6.35383 13.9531 6.57195C14.4469 6.8207 14.6063 7.30008 15.2831 7.30008C15.3175 7.30008 15.3531 7.29883 15.3925 7.2957C15.8488 7.25695 16.0406 7.08008 16.18 6.86445C16.35 6.5957 16.355 6.2907 16.2763 6.00633" fill="#558B2F"/>
<path d="M4.03457 3.02867C4.39082 2.6768 5.01082 2.30492 5.91895 2.77867C6.46582 3.06305 7.10207 3.39742 6.81395 4.55367C6.63645 5.27055 5.59207 5.65055 4.7202 4.8518C4.3752 4.53617 3.0627 3.98805 4.03457 3.02867Z" fill="#F44336"/>
<path d="M7.02181 4.39922C7.03306 4.12609 6.89243 3.79297 6.84368 3.68047C6.85181 3.84422 6.99368 4.25859 6.34243 4.80672C6.19224 4.92814 6.0122 5.00699 5.82111 5.03503C5.63003 5.06307 5.43492 5.03926 5.25618 4.96609C5.02681 4.87547 4.69681 4.49609 4.46118 4.40047C3.58431 4.04797 3.96243 3.10859 4.08618 2.98047C3.97307 3.06071 3.87687 3.16244 3.80309 3.27987C3.72931 3.3973 3.67939 3.52812 3.65618 3.66484C3.57493 4.08859 3.64993 4.48859 4.23118 4.94609C5.88118 6.24734 6.38743 5.46297 6.56743 5.26359C6.79368 5.01984 7.00931 4.70109 7.02181 4.39922Z" fill="#C62828"/>
<path d="M10.2718 2.024C10.0425 1.9165 9.3862 1.94775 9.25933 2.49463C9.18308 2.82275 9.4237 3.15525 9.64995 3.1165C9.90745 3.07275 9.77058 2.67088 9.92495 2.55713C10.1606 2.38525 10.5937 2.17588 10.2718 2.024ZM5.4312 2.82088C5.20495 2.67088 4.4812 2.66963 4.26433 3.224C4.13308 3.55713 4.33745 3.94275 4.58308 3.9365C4.86245 3.93025 4.72808 3.60088 4.96058 3.3915C5.25433 3.12713 5.74808 3.03025 5.4312 2.82088ZM5.3237 7.82713C5.10933 7.6915 4.47495 7.63775 4.21245 8.13463C4.01995 8.50025 4.28433 8.90338 4.5137 8.89275C4.77495 8.88025 4.68745 8.46463 4.85433 8.37088C5.10933 8.229 5.6237 8.01775 5.3237 7.82713ZM8.96808 11.9878C8.7387 11.8803 8.08183 11.9115 7.95558 12.4584C7.8787 12.7865 8.11933 13.1196 8.3462 13.0803C8.6037 13.0365 8.4662 12.6346 8.6212 12.5209C8.85558 12.349 9.2887 12.1396 8.96808 11.9878ZM14.8556 4.944C14.6493 4.79775 13.9981 4.7115 13.7762 5.22713C13.6431 5.5365 13.82 5.90713 14.0493 5.90838C14.3106 5.90963 14.2462 5.49088 14.42 5.4065C14.6806 5.28025 15.145 5.15025 14.8556 4.944Z" fill="white"/>
</svg>