<svg xmlns="http://www.w3.org/2000/svg" width="25" height="23" viewBox="0 0 25 23" fill="none">
<path d="M5.32804 0.375C5.09859 0.374919 4.87344 0.437212 4.67667 0.555216C4.47989 0.67322 4.3189 0.842497 4.21091 1.04494L0.83591 7.37306C0.720587 7.58929 0.670519 7.83436 0.691788 8.07849C0.713056 8.32263 0.804746 8.55534 0.955723 8.74837L11.5026 22.2484C11.621 22.3999 11.7723 22.5224 11.9451 22.6067C12.1179 22.691 12.3076 22.7348 12.4999 22.7348C12.6922 22.7348 12.8819 22.691 13.0547 22.6067C13.2275 22.5224 13.3789 22.3999 13.4972 22.2484L24.0441 8.74837C24.1948 8.55517 24.2862 8.32237 24.3072 8.07824C24.3281 7.83411 24.2778 7.58913 24.1622 7.37306L20.7872 1.04494C20.6794 0.842749 20.5186 0.673638 20.3222 0.55565C20.1257 0.437662 19.9009 0.375224 19.6718 0.375H5.32804ZM3.83797 7.125L6.08741 2.90625H8.24235L7.18766 7.125H3.83797ZM4.87747 9.65625H7.48297L9.21941 15.2132L4.87747 9.65625ZM10.134 9.65625H14.8658L12.4999 17.2264L10.134 9.65625ZM17.5168 9.65625H20.1223L15.7804 15.2132L17.5168 9.65625ZM21.1618 7.125H17.8122L16.7575 2.90625H18.9124L21.1618 7.125ZM15.2033 7.125H9.79653L10.8512 2.90625H14.1486L15.2033 7.125Z" fill="#34B3F1"/>
</svg>