<svg xmlns="http://www.w3.org/2000/svg" width="23" height="25" viewBox="0 0 23 25" fill="none">
<path d="M19.5 12.1367C19.9688 12.457 20.3867 12.8203 20.7539 13.2266C21.1211 13.6328 21.4375 14.0781 21.7031 14.5625C21.9688 15.0469 22.1641 15.5586 22.2891 16.0977C22.4141 16.6367 22.4844 17.1875 22.5 17.75C22.5 18.6797 22.3242 19.5547 21.9727 20.375C21.6211 21.1953 21.1367 21.9102 20.5195 22.5195C19.9023 23.1289 19.1875 23.6094 18.375 23.9609C17.5625 24.3125 16.6875 24.4922 15.75 24.5C15.0391 24.5 14.3516 24.3945 13.6875 24.1836C13.0234 23.9727 12.4141 23.668 11.8594 23.2695C11.3047 22.8711 10.8125 22.3945 10.3828 21.8398C9.95312 21.2852 9.62109 20.6719 9.38672 20H0V2H3V0.5H4.5V2H15V0.5H16.5V2H19.5V12.1367ZM1.5 3.5V6.5H18V3.5H16.5V5H15V3.5H4.5V5H3V3.5H1.5ZM9.03516 18.5C9.01172 18.2578 9 18.0078 9 17.75C9 17.0781 9.09375 16.4258 9.28125 15.793C9.46875 15.1602 9.75391 14.5625 10.1367 14H9V12.5H10.5V13.5078C10.8203 13.1094 11.1758 12.7578 11.5664 12.4531C11.957 12.1484 12.3789 11.8867 12.832 11.668C13.2852 11.4492 13.7578 11.2852 14.25 11.1758C14.7422 11.0664 15.2422 11.0078 15.75 11C16.5312 11 17.2812 11.1289 18 11.3867V8H1.5V18.5H9.03516ZM15.75 23C16.4766 23 17.1562 22.8633 17.7891 22.5898C18.4219 22.3164 18.9766 21.9414 19.4531 21.4648C19.9297 20.9883 20.3047 20.4336 20.5781 19.8008C20.8516 19.168 20.9922 18.4844 21 17.75C21 17.0234 20.8633 16.3438 20.5898 15.7109C20.3164 15.0781 19.9414 14.5234 19.4648 14.0469C18.9883 13.5703 18.4336 13.1953 17.8008 12.9219C17.168 12.6484 16.4844 12.5078 15.75 12.5C15.0234 12.5 14.3438 12.6367 13.7109 12.9102C13.0781 13.1836 12.5234 13.5586 12.0469 14.0352C11.5703 14.5117 11.1953 15.0664 10.9219 15.6992C10.6484 16.332 10.5078 17.0156 10.5 17.75C10.5 18.4766 10.6367 19.1562 10.9102 19.7891C11.1836 20.4219 11.5586 20.9766 12.0352 21.4531C12.5117 21.9297 13.0664 22.3047 13.6992 22.5781C14.332 22.8516 15.0156 22.9922 15.75 23ZM16.5 17H18.75V18.5H15V14H16.5V17ZM3 12.5H4.5V14H3V12.5ZM6 12.5H7.5V14H6V12.5ZM6 9.5H7.5V11H6V9.5ZM3 15.5H4.5V17H3V15.5ZM6 15.5H7.5V17H6V15.5ZM10.5 11H9V9.5H10.5V11ZM13.5 11H12V9.5H13.5V11ZM16.5 11H15V9.5H16.5V11Z" fill="white"/>
</svg>