<svg xmlns="http://www.w3.org/2000/svg" width="21" height="21" viewBox="0 0 21 21" fill="none">
<path d="M7.3 20.5L6.9 17.3C6.68333 17.2167 6.47933 17.1167 6.288 17C6.09667 16.8833 5.909 16.7583 5.725 16.625L2.75 17.875L0 13.125L2.575 11.175C2.55833 11.0583 2.55 10.946 2.55 10.838V10.163C2.55 10.0543 2.55833 9.94167 2.575 9.825L0 7.875L2.75 3.125L5.725 4.375C5.90833 4.24167 6.1 4.11667 6.3 4C6.5 3.88333 6.7 3.78333 6.9 3.7L7.3 0.5H12.8L13.2 3.7C13.4167 3.78333 13.621 3.88333 13.813 4C14.005 4.11667 14.1923 4.24167 14.375 4.375L17.35 3.125L20.1 7.875L17.525 9.825C17.5417 9.94167 17.55 10.0543 17.55 10.163V10.837C17.55 10.9457 17.5333 11.0583 17.5 11.175L20.075 13.125L17.325 17.875L14.375 16.625C14.1917 16.7583 14 16.8833 13.8 17C13.6 17.1167 13.4 17.2167 13.2 17.3L12.8 20.5H7.3ZM10.1 14C11.0667 14 11.8917 13.6583 12.575 12.975C13.2583 12.2917 13.6 11.4667 13.6 10.5C13.6 9.53333 13.2583 8.70833 12.575 8.025C11.8917 7.34167 11.0667 7 10.1 7C9.11667 7 8.28733 7.34167 7.612 8.025C6.93667 8.70833 6.59933 9.53333 6.6 10.5C6.60067 11.4667 6.93833 12.2917 7.613 12.975C8.28767 13.6583 9.11667 14 10.1 14Z" fill="white"/>
</svg>