<svg xmlns="http://www.w3.org/2000/svg" width="20" height="20" viewBox="0 0 20 20" fill="none">
<g clip-path="url(#clip0_189_945)">
<path d="M6.25 0C5.32422 0 4.51562 0.503906 4.08594 1.25H1.875C0.839844 1.25 0 2.08984 0 3.125V15.625C0 16.6602 0.839844 17.5 1.875 17.5H7.5V6.875C7.5 5.14844 8.89844 3.75 10.625 3.75H12.5V3.125C12.5 2.08984 11.6602 1.25 10.625 1.25H8.41406C7.98438 0.503906 7.17578 0 6.25 0ZM10.625 5C9.58984 5 8.75 5.83984 8.75 6.875V18.125C8.75 19.1602 9.58984 20 10.625 20H18.125C19.1602 20 20 19.1602 20 18.125V9.52734C20 9.03125 19.8008 8.55469 19.4492 8.20312L16.7969 5.55078C16.4453 5.19922 15.9688 5 15.4727 5H12.5H10.625ZM6.25 1.5625C6.49864 1.5625 6.7371 1.66127 6.91291 1.83709C7.08873 2.0129 7.1875 2.25136 7.1875 2.5C7.1875 2.74864 7.08873 2.9871 6.91291 3.16291C6.7371 3.33873 6.49864 3.4375 6.25 3.4375C6.00136 3.4375 5.7629 3.33873 5.58709 3.16291C5.41127 2.9871 5.3125 2.74864 5.3125 2.5C5.3125 2.25136 5.41127 2.0129 5.58709 1.83709C5.7629 1.66127 6.00136 1.5625 6.25 1.5625Z" fill="white"/>
</g>
<defs>
<clipPath id="clip0_189_945">
<rect width="20" height="20" fill="white"/>
</clipPath>
</defs>
</svg>