<svg width="60" height="60" viewBox="0 0 60 60" fill="none" xmlns="http://www.w3.org/2000/svg">
<g clip-path="url(#clip0_706_36)">
<path d="M29.9745 60C24.0461 60 18.2508 58.2405 13.3216 54.9441C8.39229 51.6477 4.55038 46.9623 2.28168 41.4805C0.0129873 35.9987 -0.580607 29.9667 0.575965 24.1473C1.73254 18.3279 4.58733 12.9824 8.77934 8.7868C12.9713 4.59123 18.3123 1.734 24.1268 0.576447C29.9412 -0.581109 35.9681 0.0129908 41.4452 2.28362C46.9223 4.55425 51.6037 8.39942 54.8974 13.3329C58.191 18.2664 59.949 24.0666 59.949 30C59.949 37.9565 56.791 45.5871 51.1697 51.2132C45.5483 56.8393 37.9242 60 29.9745 60V60Z" fill="#D7848A"/>
<path d="M42.6982 40.4691C42.1353 40.4613 41.5962 40.2405 41.1892 39.8513C40.7837 39.4828 40.4368 39.0545 40.1604 38.5812C39.2617 36.8219 38.527 34.9835 37.9654 33.0892C37.2109 30.8925 36.5593 29.0732 35.942 27.46C35.7606 27.0376 35.5179 26.6443 35.2218 26.2929C34.8043 26.6408 34.425 27.032 34.09 27.46C33.4384 28.5584 32.7868 29.6911 32.1694 30.8925C31.8265 31.5103 31.4835 32.1281 31.1063 32.7117C30.4547 33.913 29.7687 35.0801 29.0485 36.1442C28.7475 36.6095 28.3775 37.0261 27.9511 37.3799C27.4645 37.8537 26.8123 38.1189 26.1334 38.1189C25.4545 38.1189 24.8023 37.8537 24.3157 37.3799L24.1264 37.1747C23.6372 36.7012 23.4104 36.191 23.0811 35.595L21.7092 32.7117L20.989 31.1327C20.5798 30.3581 20.3394 30.0816 19.9259 29.5881L19.6858 29.3478C19.3364 29.6288 19.0352 29.9651 18.7941 30.3433L17.9367 31.5789L16.119 34.119C15.8489 34.4741 15.5507 34.807 15.2273 35.1144C14.6842 35.6843 13.9617 36.0499 13.1812 36.1499C12.4006 36.2499 11.6094 36.0782 10.9404 35.6636C10.1796 35.2671 9.44629 34.8199 8.74545 34.3249C8.29961 33.9474 7.85376 33.5698 7.44221 33.1579L6.31046 32.1968C6.13916 32.0572 5.99704 31.8851 5.89225 31.6905C5.78746 31.4958 5.72204 31.2824 5.69974 31.0624C5.67745 30.8424 5.6987 30.6202 5.7623 30.4085C5.8259 30.1967 5.93059 29.9996 6.07038 29.8284C6.36188 29.4971 6.76768 29.2882 7.2065 29.2437C7.64532 29.1991 8.08475 29.3222 8.43679 29.5881L9.67144 30.6865L10.8375 31.7162C11.393 32.1818 11.99 32.5954 12.6209 32.9519C12.6559 32.9771 12.6978 32.9906 12.7409 32.9906C12.784 32.9906 12.826 32.9771 12.8609 32.9519C13.0376 32.8093 13.1986 32.6482 13.3411 32.4714L15.0902 29.9657L15.9133 28.833C16.4363 27.9822 17.1386 27.2559 17.971 26.7048C18.4925 26.3763 19.1037 26.2194 19.7189 26.2564C20.334 26.2933 20.9221 26.5222 21.4006 26.9108C21.8536 27.2461 22.2378 27.6657 22.5323 28.1465C22.9782 28.8673 23.2868 29.5538 23.6298 30.2403L24.3843 31.8879C24.7959 32.8146 25.2074 33.7414 25.6533 34.6339C25.7332 34.7677 25.8251 34.894 25.9276 35.0114C26.6135 33.9474 27.2652 32.7803 27.9168 31.5789L28.9456 29.7597C29.5973 28.5927 30.2489 27.3913 30.9691 26.3272C31.4509 25.5406 32.0527 24.8341 32.7525 24.2334L33.2669 23.8558C33.6105 23.6247 33.9975 23.466 34.4043 23.3893C34.8111 23.3126 35.2293 23.3195 35.6333 23.4096C36.4055 23.6078 37.0846 24.069 37.5539 24.714C38.0396 25.3157 38.4326 25.9867 38.7199 26.7048C39.3715 28.4211 40.0232 30.1373 40.812 32.54C41.2817 34.0806 41.8663 35.5837 42.5611 37.0366C42.864 36.703 43.1076 36.3199 43.2813 35.9039C44.6718 33.1252 45.9083 30.2719 46.9852 27.357C47.5457 25.7594 48.2577 24.2192 49.1115 22.7574C49.6432 21.7848 50.3949 20.9502 51.3065 20.3204C51.4821 20.1919 51.6813 20.0993 51.8927 20.0479C52.1041 19.9965 52.3236 19.9873 52.5385 20.0207C52.7535 20.0542 52.9598 20.1297 53.1456 20.243C53.3314 20.3562 53.4931 20.505 53.6214 20.6808C53.7498 20.8566 53.8423 21.056 53.8937 21.2675C53.945 21.4791 53.9543 21.6987 53.9208 21.9139C53.8874 22.129 53.8119 22.3355 53.6988 22.5215C53.5856 22.7074 53.437 22.8692 53.2613 22.9977C52.7349 23.3761 52.301 23.869 51.9924 24.4394C51.2328 25.7245 50.601 27.0811 50.1061 28.4897C48.9932 31.5064 47.7225 34.4624 46.2993 37.3455C45.7441 38.5349 44.9226 39.5802 43.8986 40.4005C43.5102 40.522 43.0979 40.5456 42.6982 40.4691Z" fill="white"/>
</g>
<defs>
<clipPath id="clip0_706_36">
<rect width="60" height="60" fill="white"/>
</clipPath>
</defs>
</svg>
